<svg
   class=""
   id="chordDiagram"
   style="width: 800px; height: 800px; cursor: default"
   version="1.1"
   sodipodi:docname="non-chord-placeholder.svg"
   inkscape:version="1.2.2 (b0a8486541, 2022-12-01)"
   xmlns:inkscape="http://www.inkscape.org/namespaces/inkscape"
   xmlns:sodipodi="http://sodipodi.sourceforge.net/DTD/sodipodi-0.dtd"
   xmlns="http://www.w3.org/2000/svg"
   xmlns:svg="http://www.w3.org/2000/svg">
  <defs
     id="defs1126" />
  <sodipodi:namedview
     id="namedview1124"
     pagecolor="#505050"
     bordercolor="#eeeeee"
     borderopacity="1"
     inkscape:showpageshadow="0"
     inkscape:pageopacity="0"
     inkscape:pagecheckerboard="0"
     inkscape:deskcolor="#505050"
     showgrid="false"
     inkscape:zoom="1.6225"
     inkscape:cx="305.08475"
     inkscape:cy="364.86903"
     inkscape:window-width="3440"
     inkscape:window-height="1376"
     inkscape:window-x="0"
     inkscape:window-y="32"
     inkscape:window-maximized="1"
     inkscape:current-layer="g35" />
  <g
     transform="translate(400, 400)"
     id="g1121">
    <g
       id="salary-key">
      <circle
         cx="0"
         cy="0"
         r="225"
         fill-opacity="0"
         stroke="#ffffff"
         stroke-opacity="0.5"
         id="circle2" />
      <circle
         cx="0"
         cy="0"
         r="240"
         fill-opacity="0"
         stroke="#ffffff"
         stroke-opacity="0.5"
         id="circle4" />
      <circle
         cx="0"
         cy="0"
         r="255"
         fill-opacity="0"
         stroke="#ffffff"
         stroke-opacity="0.5"
         id="circle6" />
      <circle
         cx="0"
         cy="0"
         r="270"
         fill-opacity="0"
         stroke="#ffffff"
         stroke-opacity="0.5"
         id="circle8" />
      <circle
         cx="0"
         cy="0"
         r="285"
         fill-opacity="0"
         stroke="#ffffff"
         stroke-opacity="0.5"
         id="circle10" />
      <circle
         cx="0"
         cy="0"
         r="300"
         fill-opacity="0"
         stroke="#ffffff"
         stroke-opacity="0.5"
         id="circle12" />
      <circle
         cx="0"
         cy="0"
         r="315"
         fill-opacity="0"
         stroke="#ffffff"
         stroke-opacity="0.5"
         id="circle14" />
    </g>
    <g
       class="arc-outer"
       id="g25"
       style="fill:#999999;fill-opacity:0.85000002">
      <path
         style="fill:#999999;fill-opacity:0.85000002"
         d="M1.2858791391047208e-14,-210A210,210,0,0,1,51.40873295202598,-203.61027031136538L48.960698049548554,-193.9145431536813A200,200,0,0,0,1.2246467991473532e-14,-200Z"
         id="path17" />
      <path
         fill="hsl(76, 100%, 30%)"
         fill-opacity="0.85"
         d="M2.0361817863694048e-14,-332.5337211981567A332.5337211981567,332.5337211981567,0,0,1,81.40541557437855,-322.4156231466709L51.40873295202598,-203.61027031136538A210,210,0,0,0,1.2858791391047208e-14,-210Z"
         id="path19"
         style="fill:#999999;fill-opacity:0.85000002" />
    </g>
    <g
       class="arc-outer"
       id="g35">
      <path
         style="fill:#999999;fill-opacity:0.85000002"
         d="M61.5207575875515,-200.78644472636526A210,210,0,0,1,98.77926513700076,-185.31771847018325L94.0754906066674,-176.49306520969833A200,200,0,0,0,58.591197702429994,-191.22518545368118Z"
         id="path27" />
      <path
         fill="hsl(49, 100%, 30%)"
         fill-opacity="0.85"
         d="M89.27489238083089,-291.3681324383269A304.7382401508011,304.7382401508011,0,0,1,143.34199724399522,-268.92093045412025L98.77926513700076,-185.31771847018325A210,210,0,0,0,61.5207575875515,-200.78644472636526Z"
         id="path29"
         style="fill:#999999;fill-opacity:0.85000002" />
    </g>
    <g
       class="arc-outer"
       id="g45"
       style="fill:#999999;fill-opacity:0.85000002">
      <path
         style="fill:#999999;fill-opacity:0.85000002"
         d="M107.91784239748013,-180.1492139651812A210,210,0,0,1,134.6745531637543,-161.12965192708361L128.2614792035755,-153.45681135912724A200,200,0,0,0,102.77889752140965,-171.57067996683924Z"
         id="path37" />
      <path
         fill="hsl(32, 100%, 30%)"
         fill-opacity="0.85"
         d="M155.91044661576555,-260.2641396715539A303.3899961483595,303.3899961483595,0,0,1,194.56624840777835,-232.78630703592574L134.6745531637543,-161.12965192708361A210,210,0,0,0,107.91784239748013,-180.1492139651812Z"
         id="path39"
         style="fill:#999999;fill-opacity:0.85000002" />
    </g>
    <g
       class="arc-outer"
       id="g55"
       style="fill:#999999;fill-opacity:0.85000002">
      <path
         style="fill:#999999;fill-opacity:0.85000002"
         d="M142.55937118906454,-154.19735953050076A210,210,0,0,1,169.10341204689357,-124.5152040278557L161.0508686160891,-118.58590859795781A200,200,0,0,0,135.770829703871,-146.85462812428645Z"
         id="path47" />
      <path
         fill="hsl(48, 100%, 30%)"
         fill-opacity="0.85"
         d="M195.69735867169055,-211.6733240514095A288.2760002255639,288.2760002255639,0,0,1,232.13550118749484,-170.92735706866793L169.10341204689357,-124.5152040278557A210,210,0,0,0,142.55937118906454,-154.19735953050076Z"
         id="path49"
         style="fill:#999999;fill-opacity:0.85000002" />
    </g>
    <g
       class="arc-outer"
       id="g65"
       style="fill:#999999;fill-opacity:0.85000002">
      <path
         style="fill:#999999;fill-opacity:0.85000002"
         d="M175.11524327439346,-115.90794439101228A210,210,0,0,1,191.9838301164467,-85.1011690508381L182.84174296804449,-81.04873242936962A200,200,0,0,0,166.77642216608902,-110.38851846763073Z"
         id="path57" />
      <path
         fill="hsl(37, 100%, 30%)"
         fill-opacity="0.85"
         d="M239.8093597623039,-158.72867156526897A287.5818495776135,287.5818495776135,0,0,1,262.90983311372423,-116.5407218897961L191.9838301164467,-85.1011690508381A210,210,0,0,0,175.11524327439346,-115.90794439101228Z"
         id="path59"
         style="fill:#999999;fill-opacity:0.85000002" />
    </g>
    <g
       class="arc-outer"
       id="g75"
       style="fill:#999999;fill-opacity:0.85000002">
      <path
         style="fill:#999999;fill-opacity:0.85000002"
         d="M195.99718605354857,-75.39962240681754A210,210,0,0,1,205.0857020798803,-45.164751769522496L195.31971626655266,-43.014049304307136A200,200,0,0,0,186.6639867176653,-71.80916419696909Z"
         id="path67" />
      <path
         fill="hsl(29, 100%, 30%)"
         fill-opacity="0.85"
         d="M263.311060231209,-101.29509977529852A282.12304350862775,282.12304350862775,0,0,1,275.5209640518073,-60.67627251680651L205.0857020798803,-45.164751769522496A210,210,0,0,0,195.99718605354857,-75.39962240681754Z"
         id="path69"
         style="fill:#999999;fill-opacity:0.85000002" />
    </g>
    <g
       class="arc-outer"
       id="g85"
       style="fill:#999999;fill-opacity:0.85000002">
      <path
         style="fill:#999999;fill-opacity:0.85000002"
         d="M207.08669512932207,-34.858294571238346A210,210,0,0,1,209.41362047199289,-15.682332760534157L199.4415433066599,-14.93555501003253A200,200,0,0,0,197.22542393268768,-33.19837578213176Z"
         id="path77" />
      <path
         fill="hsl(1, 100%, 30%)"
         fill-opacity="0.85"
         d="M272.3777705702949,-45.848549349185795A276.20959320463317,276.20959320463317,0,0,1,275.4383377241838,-20.626717868032532L209.41362047199289,-15.682332760534157A210,210,0,0,0,207.08669512932207,-34.858294571238346Z"
         id="path79"
         style="fill:#999999;fill-opacity:0.85000002" />
    </g>
    <g
       class="arc-outer"
       id="g95"
       style="fill:#999999;fill-opacity:0.85000002">
      <path
         style="fill:#999999;fill-opacity:0.85000002"
         d="M209.93569794025336,-5.196415143028669A210,210,0,0,1,208.0446155564363,28.590871584731747L198.1377291013679,27.22940150926833A200,200,0,0,0,199.93875994309843,-4.9489668028844465Z"
         id="path87" />
      <path
         fill="hsl(34, 100%, 30%)"
         fill-opacity="0.85"
         d="M275.39186835794743,-6.816613320377106A275.47621925465836,275.47621925465836,0,0,1,272.91116252274264,37.50526290170164L208.0446155564363,28.590871584731747A210,210,0,0,0,209.93569794025336,-5.196415143028669Z"
         id="path89"
         style="fill:#999999;fill-opacity:0.85000002" />
    </g>
    <g
       class="arc-outer"
       id="g105"
       style="fill:#999999;fill-opacity:0.85000002">
      <path
         style="fill:#999999;fill-opacity:0.85000002"
         d="M206.35566595023187,38.95303749691821A210,210,0,0,1,197.71625598295884,70.76921731996966L188.3011961742465,67.39925459044728A200,200,0,0,0,196.5292056668875,37.09813094944592Z"
         id="path97" />
      <path
         fill="hsl(32, 100%, 30%)"
         fill-opacity="0.85"
         d="M268.90970626514996,50.76114495425552A273.6587728553137,273.6587728553137,0,0,1,257.65137136116,92.22198651292338L197.71625598295884,70.76921731996966A210,210,0,0,0,206.35566595023187,38.95303749691821Z"
         id="path99"
         style="fill:#999999;fill-opacity:0.85000002" />
    </g>
    <g
       class="arc-outer"
       id="g115"
       style="fill:#999999;fill-opacity:0.85000002">
      <path
         style="fill:#999999;fill-opacity:0.85000002"
         d="M193.93217545570974,80.56246845160472A210,210,0,0,1,172.94122734627857,119.12737671905137L164.7059308059796,113.45464449433464A200,200,0,0,0,184.69730995781882,76.72616043009974Z"
         id="path107" />
      <path
         fill="hsl(57, 100%, 30%)"
         fill-opacity="0.85"
         d="M251.37009567424812,104.4230817029039A272.196812971078,272.196812971078,0,0,1,224.16214721411268,154.40996324062274L172.94122734627857,119.12737671905137A210,210,0,0,0,193.93217545570974,80.56246845160472Z"
         id="path109"
         style="fill:#999999;fill-opacity:0.85000002" />
    </g>
    <g
       class="arc-outer"
       id="g125"
       style="fill:#999999;fill-opacity:0.85000002">
      <path
         style="fill:#999999;fill-opacity:0.85000002"
         d="M166.7712085193075,127.62195739374029A210,210,0,0,1,137.44054305465153,158.7768784327318L130.8957552901443,151.2160746978398A200,200,0,0,0,158.82972239934045,121.5447213273717Z"
         id="path117" />
      <path
         fill="hsl(55, 100%, 30%)"
         fill-opacity="0.85"
         d="M215.25851589008485,164.72695369586958A271.05571002493764,271.05571002493764,0,0,1,177.40020944710275,204.93990247203487L137.44054305465153,158.7768784327318A210,210,0,0,0,166.7712085193075,127.62195739374029Z"
         id="path119"
         style="fill:#999999;fill-opacity:0.85000002" />
    </g>
    <g
       class="arc-outer"
       id="g135"
       style="fill:#999999;fill-opacity:0.85000002">
      <path
         style="fill:#999999;fill-opacity:0.85000002"
         d="M129.33324168119938,165.4476128453731A210,210,0,0,1,100.56608943250207,184.35417450183763L95.77722803095435,175.5754042874644A200,200,0,0,0,123.17451588685655,157.56915509083154Z"
         id="path127" />
      <path
         fill="hsl(36, 100%, 30%)"
         fill-opacity="0.85"
         d="M166.8889334153331,213.49016915495A270.97964577125833,270.97964577125833,0,0,1,129.76839662390523,237.8868042998129L100.56608943250207,184.35417450183763A210,210,0,0,0,129.33324168119938,165.4476128453731Z"
         id="path129"
         style="fill:#999999;fill-opacity:0.85000002" />
    </g>
    <g
       class="arc-outer"
       id="g145"
       style="fill:#999999;fill-opacity:0.85000002">
      <path
         style="fill:#999999;fill-opacity:0.85000002"
         d="M91.22653951443142,189.14998939524656A210,210,0,0,1,50.682151093776106,203.7923442146629L48.268715327405815,194.08794687110753A200,200,0,0,0,86.88241858517279,180.14284704309196Z"
         id="path137" />
      <path
         fill="hsl(56, 100%, 30%)"
         fill-opacity="0.85"
         d="M116.99568230468867,242.57997930219332A269.3195797490264,269.3195797490264,0,0,1,64.99855063501161,261.3584214283902L50.682151093776106,203.7923442146629A210,210,0,0,0,91.22653951443142,189.14998939524656Z"
         id="path139"
         style="fill:#999999;fill-opacity:0.85000002" />
    </g>
    <g
       class="arc-outer"
       id="g155"
       style="fill:#999999;fill-opacity:0.85000002">
      <path
         style="fill:#999999;fill-opacity:0.85000002"
         d="M40.43343953471297,206.0707086594131A210,210,0,0,1,-4.935596838808321,209.94199171162674L-4.700568417912686,199.9447540110731A200,200,0,0,0,38.50803765210758,196.25781777086962Z"
         id="path147" />
      <path
         fill="hsl(61, 100%, 30%)"
         fill-opacity="0.85"
         d="M51.750871619547894,263.7504726558566A268.77958356164385,268.77958356164385,0,0,1,-6.317084109347935,268.7053385921577L-4.935596838808321,209.94199171162674A210,210,0,0,0,40.43343953471297,206.0707086594131Z"
         id="path149"
         style="fill:#999999;fill-opacity:0.85000002" />
    </g>
    <g
       class="arc-outer"
       id="g165"
       style="fill:#999999;fill-opacity:0.85000002">
      <path
         style="fill:#999999;fill-opacity:0.85000002"
         d="M-15.422154968743085,209.4329418599664A210,210,0,0,1,-54.6503327887004,202.7642501184178L-52.04793598923848,193.10880963658838A200,200,0,0,0,-14.687766636898175,199.45994462853943Z"
         id="path157" />
      <path
         fill="hsl(48, 100%, 30%)"
         fill-opacity="0.85"
         d="M-19.6375205832878,266.6776280571118A267.3996812279819,267.3996812279819,0,0,1,-69.58800746048388,258.1861706956939L-54.6503327887004,202.7642501184178A210,210,0,0,0,-15.422154968743085,209.4329418599664Z"
         id="path159"
         style="fill:#999999;fill-opacity:0.85000002" />
    </g>
    <g
       class="arc-outer"
       id="g175"
       style="fill:#999999;fill-opacity:0.85000002">
      <path
         style="fill:#999999;fill-opacity:0.85000002"
         d="M-64.71602288209661,199.7794693714145A210,210,0,0,1,-93.87236204192244,187.8509506089076L-89.40224956373567,178.90566724657867A200,200,0,0,0,-61.63430750675868,190.26616130610904Z"
         id="path167" />
      <path
         fill="hsl(29, 100%, 30%)"
         fill-opacity="0.85"
         d="M-82.29925305105033,254.0592016007696A267.05663251599145,267.05663251599145,0,0,1,-119.37731853922756,238.88972516448902L-93.87236204192244,187.8509506089076A210,210,0,0,0,-64.71602288209661,199.7794693714145Z"
         id="path169"
         style="fill:#999999;fill-opacity:0.85000002" />
    </g>
    <g
       class="arc-outer"
       id="g185"
       style="fill:#999999;fill-opacity:0.85000002">
      <path
         style="fill:#999999;fill-opacity:0.85000002"
         d="M-103.14368049140097,182.92452316375676A210,210,0,0,1,-129.2087598230616,165.5448470505391L-123.05596173624916,157.6617590957515A200,200,0,0,0,-98.23207665847711,174.21383158453025Z"
         id="path177" />
      <path
         fill="hsl(28, 100%, 30%)"
         fill-opacity="0.85"
         d="M-130.81028697964112,231.99103674276904A266.3290677126342,266.3290677126342,0,0,1,-163.8668978284841,209.94954656952712L-129.2087598230616,165.5448470505391A210,210,0,0,0,-103.14368049140097,182.92452316375676Z"
         id="path179"
         style="fill:#999999;fill-opacity:0.85000002" />
    </g>
    <g
       class="arc-outer"
       id="g195"
       style="fill:#999999;fill-opacity:0.85000002">
      <path
         style="fill:#999999;fill-opacity:0.85000002"
         d="M-137.32107645122085,158.88021262031958A210,210,0,0,1,-157.28017415326244,139.15080602827797L-149.79064205072612,132.52457716978853A200,200,0,0,0,-130.7819775725913,151.31448820982817Z"
         id="path187" />
      <path
         fill="hsl(21, 100%, 30%)"
         fill-opacity="0.85"
         d="M-173.3907344378722,200.61273524656806A265.1599825237857,265.1599825237857,0,0,1,-198.59242014198588,175.70107283156608L-157.28017415326244,139.15080602827797A210,210,0,0,0,-137.32107645122085,158.88021262031958Z"
         id="path189"
         style="fill:#999999;fill-opacity:0.85000002" />
    </g>
    <g
       class="arc-outer"
       id="g205"
       style="fill:#999999;fill-opacity:0.85000002">
      <path
         style="fill:#999999;fill-opacity:0.85000002"
         d="M-164.0382565791751,131.11617130798442A210,210,0,0,1,-181.39225871577693,105.81516185305699L-172.75453211026374,100.77634462195904A200,200,0,0,0,-156.2269110277858,124.8725441028423Z"
         id="path197" />
      <path
         fill="hsl(27, 100%, 30%)"
         fill-opacity="0.85"
         d="M-204.5437699760565,163.49232516511816A261.8547196899736,261.8547196899736,0,0,1,-226.18294790452828,131.9438073618163L-181.39225871577693,105.81516185305699A210,210,0,0,0,-164.0382565791751,131.11617130798442Z"
         id="path199"
         style="fill:#999999;fill-opacity:0.85000002" />
    </g>
    <g
       class="arc-outer"
       id="g215"
       style="fill:#999999;fill-opacity:0.85000002">
      <path
         style="fill:#999999;fill-opacity:0.85000002"
         d="M-186.45411951167145,96.61708605172971A210,210,0,0,1,-200.32401798493146,63.01021995178926L-190.78477903326805,60.00973328741834A200,200,0,0,0,-177.57535191587758,92.01627243021878Z"
         id="path207" />
      <path
         fill="hsl(40, 100%, 30%)"
         fill-opacity="0.85"
         d="M-232.37484289251793,120.4123580149603A261.7197042105263,261.7197042105263,0,0,1,-249.66067968228765,78.5286482286785L-200.32401798493146,63.01021995178926A210,210,0,0,0,-186.45411951167145,96.61708605172971Z"
         id="path209"
         style="fill:#999999;fill-opacity:0.85000002" />
    </g>
    <g
       class="arc-outer"
       id="g225"
       style="fill:#999999;fill-opacity:0.85000002">
      <path
         style="fill:#999999;fill-opacity:0.85000002"
         d="M-203.22286357456932,52.91944558054236A210,210,0,0,1,-209.80602074700096,9.024059968163405L-199.8152578542866,8.59434282682229A200,200,0,0,0,-193.5455843567327,50.39947198146891Z"
         id="path217" />
      <path
         fill="hsl(59, 100%, 30%)"
         fill-opacity="0.85"
         d="M-252.73547881728055,65.81258221782608A261.16377664442325,261.16377664442325,0,0,1,-260.9225368620238,11.22265515214909L-209.80602074700096,9.024059968163405A210,210,0,0,0,-203.22286357456932,52.91944558054236Z"
         id="path219"
         style="fill:#999999;fill-opacity:0.85000002" />
    </g>
    <g
       class="arc-outer"
       id="g235"
       style="fill:#999999;fill-opacity:0.85000002">
      <path
         style="fill:#999999;fill-opacity:0.85000002"
         d="M-209.99483287415646,-1.4731483818987812A210,210,0,0,1,-208.59594080871923,-24.24321509464666L-198.6628007702088,-23.088776280615868A200,200,0,0,0,-199.99507892776808,-1.40299845895122Z"
         id="path227" />
      <path
         fill="hsl(9, 100%, 30%)"
         fill-opacity="0.85"
         d="M-261.0129737821876,-1.8310490535366855A261.0193962587022,261.0193962587022,0,0,1,-259.2742215805137,-30.13309222559299L-208.59594080871923,-24.24321509464666A210,210,0,0,0,-209.99483287415646,-1.4731483818987812Z"
         id="path229"
         style="fill:#999999;fill-opacity:0.85000002" />
    </g>
    <g
       class="arc-outer"
       id="g245"
       style="fill:#999999;fill-opacity:0.85000002">
      <path
         style="fill:#999999;fill-opacity:0.85000002"
         d="M-207.1235944491605,-34.63836922344487A210,210,0,0,1,-196.1109237132124,-75.10329953038405L-186.77230829829753,-71.5269519336991A200,200,0,0,0,-197.2605661420576,-32.9889230699475Z"
         id="path237" />
      <path
         fill="hsl(53, 100%, 30%)"
         fill-opacity="0.85"
         d="M-257.07000142432616,-42.99116983407198A260.6400320672269,260.6400320672269,0,0,1,-243.40170212069128,-93.21393522835166L-196.1109237132124,-75.10329953038405A210,210,0,0,0,-207.1235944491605,-34.63836922344487Z"
         id="path239"
         style="fill:#999999;fill-opacity:0.85000002" />
    </g>
    <g
       class="arc-outer"
       id="g255"
       style="fill:#999999;fill-opacity:0.85000002">
      <path
         style="fill:#999999;fill-opacity:0.85000002"
         d="M-192.11223560485274,-84.81090101458392A210,210,0,0,1,-181.0802684884569,-106.34818458322812L-172.45739856043517,-101.28398531736012A200,200,0,0,0,-182.96403390938357,-80.77228668055612Z"
         id="path247" />
      <path
         fill="hsl(12, 100%, 30%)"
         fill-opacity="0.85"
         d="M-238.29578832110371,-105.19934064513518A260.48374998020023,260.48374998020023,0,0,1,-224.61174944426068,-131.91416154202753L-181.0802684884569,-106.34818458322812A210,210,0,0,0,-192.11223560485274,-84.81090101458392Z"
         id="path249"
         style="fill:#999999;fill-opacity:0.85000002" />
    </g>
    <g
       class="arc-outer"
       id="g265"
       style="fill:#999999;fill-opacity:0.85000002">
      <path
         style="fill:#999999;fill-opacity:0.85000002"
         d="M-175.53877138632225,-115.26551843539545A210,210,0,0,1,-152.26351860526012,-144.62303033039242L-145.01287486215247,-137.73621936227852A200,200,0,0,0,-167.17978227268787,-109.77668422418614Z"
         id="path257" />
      <path
         fill="hsl(43, 100%, 30%)"
         fill-opacity="0.85"
         d="M-215.6973660714173,-141.63519847506714A258.04240577319587,258.04240577319587,0,0,1,-187.09735548758613,-177.70892703173493L-152.26351860526012,-144.62303033039242A210,210,0,0,0,-175.53877138632225,-115.26551843539545Z"
         id="path259"
         style="fill:#999999;fill-opacity:0.85000002" />
    </g>
    <g
       class="arc-outer"
       id="g275"
       style="fill:#999999;fill-opacity:0.85000002">
      <path
         style="fill:#999999;fill-opacity:0.85000002"
         d="M-144.84508994233622,-152.0522933717099A210,210,0,0,1,-122.33986481192295,-170.68379383468255L-116.51415696373616,-162.55599412826908A200,200,0,0,0,-137.94770470698688,-144.81170797305705Z"
         id="path267" />
      <path
         fill="hsl(24, 100%, 30%)"
         fill-opacity="0.85"
         d="M-177.09668148336127,-185.90865992616324A256.75915646371976,256.75915646371976,0,0,1,-149.58038329045166,-208.68869965247876L-122.33986481192295,-170.68379383468255A210,210,0,0,0,-144.84508994233622,-152.0522933717099Z"
         id="path269"
         style="fill:#999999;fill-opacity:0.85000002" />
    </g>
    <g
       class="arc-outer"
       id="g285"
       style="fill:#999999;fill-opacity:0.85000002">
      <path
         style="fill:#999999;fill-opacity:0.85000002"
         d="M-113.65633761376789,-176.5849283495769A210,210,0,0,1,-88.63224876240234,-190.3794224156582L-84.41166548800223,-181.3137356339602A200,200,0,0,0,-108.24413106073132,-168.17612223769228Z"
         id="path277" />
      <path
         fill="hsl(22, 100%, 30%)"
         fill-opacity="0.85"
         d="M-138.04213264620347,-214.4725108545095A255.0570295007564,255.0570295007564,0,0,1,-107.64894327290683,-231.2267140924167L-88.63224876240234,-190.3794224156582A210,210,0,0,0,-113.65633761376789,-176.5849283495769Z"
         id="path279"
         style="fill:#999999;fill-opacity:0.85000002" />
    </g>
    <g
       class="arc-outer"
       id="g295"
       style="fill:#999999;fill-opacity:0.85000002">
      <path
         style="fill:#999999;fill-opacity:0.85000002"
         d="M-79.00647615227464,-194.5712638752189A210,210,0,0,1,-51.72581494262208,-203.52994882454428L-49.262680897735315,-193.83804649956596A200,200,0,0,0,-75.24426300216633,-185.30596559544657Z"
         id="path287" />
      <path
         fill="hsl(22, 100%, 30%)"
         fill-opacity="0.85"
         d="M-95.36299944980516,-234.85289097210529A253.4758017287234,253.4758017287234,0,0,1,-62.434487679298634,-245.66627121003526L-51.72581494262208,-203.52994882454428A210,210,0,0,0,-79.00647615227464,-194.5712638752189Z"
         id="path289"
         style="fill:#999999;fill-opacity:0.85000002" />
    </g>
    <g
       class="arc-outer"
       id="g305"
       style="fill:#999999;fill-opacity:0.85000002">
      <path
         style="fill:#999999;fill-opacity:0.85000002"
         d="M-41.48891337913128,-205.86080264736884A210,210,0,0,1,-10.49562554684245,-209.7375546829429L-9.995833854135668,-199.75005207899326A200,200,0,0,0,-39.51325083726789,-196.0579072832084Z"
         id="path297" />
      <path
         fill="hsl(28, 100%, 30%)"
         fill-opacity="0.85"
         d="M-46.23316339875479,-229.4009495795067A234.0134634285714,234.0134634285714,0,0,1,-11.695798500314265,-233.72100753521363L-10.49562554684245,-209.7375546829429A210,210,0,0,0,-41.48891337913128,-205.86080264736884Z"
         id="path299"
         style="fill:#999999;fill-opacity:0.85000002" />
    </g>
  </g>
</svg>